<svg width="15" height="14" viewBox="0 0 15 14" fill="none" xmlns="http://www.w3.org/2000/svg">
<g clip-path="url(#clip0_1236_1922)">
<path d="M8.01999 9.00006L5.01999 9.54006L5.51999 6.50006L11.25 0.790061C11.343 0.696333 11.4536 0.621938 11.5754 0.57117C11.6973 0.520401 11.828 0.494263 11.96 0.494263C12.092 0.494263 12.2227 0.520401 12.3446 0.57117C12.4664 0.621938 12.577 0.696333 12.67 0.790061L13.73 1.85006C13.8237 1.94302 13.8981 2.05363 13.9489 2.17548C13.9996 2.29734 14.0258 2.42805 14.0258 2.56006C14.0258 2.69207 13.9996 2.82278 13.9489 2.94464C13.8981 3.0665 13.8237 3.1771 13.73 3.27006L8.01999 9.00006Z" stroke="white" stroke-linecap="round" stroke-linejoin="round"/>
<path d="M12.52 9.5V12.5C12.52 12.7652 12.4146 13.0196 12.2271 13.2071C12.0396 13.3946 11.7852 13.5 11.52 13.5H2.01999C1.75477 13.5 1.50042 13.3946 1.31288 13.2071C1.12535 13.0196 1.01999 12.7652 1.01999 12.5V3C1.01999 2.73478 1.12535 2.48043 1.31288 2.29289C1.50042 2.10536 1.75477 2 2.01999 2H5.01999" stroke="white" stroke-linecap="round" stroke-linejoin="round"/>
</g>
<defs>
<clipPath id="clip0_1236_1922">
<rect width="14" height="14" fill="white" transform="translate(0.519989)"/>
</clipPath>
</defs>
</svg>
