<svg width="29" height="28" viewBox="0 0 29 28" fill="none" xmlns="http://www.w3.org/2000/svg">
<path d="M2 24.5769V3.42308C2 2.91305 2.20261 2.4239 2.56326 2.06326C2.9239 1.70261 3.41305 1.5 3.92308 1.5H25.0769C25.587 1.5 26.0761 1.70261 26.4367 2.06326C26.7974 2.4239 27 2.91305 27 3.42308V24.5769C27 25.087 26.7974 25.5761 26.4367 25.9367C26.0761 26.2974 25.587 26.5 25.0769 26.5H19.3077V17.3846H20.6731C20.9842 17.3846 21.2826 17.261 21.5026 17.041C21.7226 16.821 21.8462 16.5227 21.8462 16.2115V14.7308C21.8462 14.5767 21.8158 14.4242 21.7569 14.2819C21.6979 14.1395 21.6115 14.0102 21.5026 13.9013C21.3936 13.7923 21.2643 13.7059 21.122 13.647C20.9797 13.588 20.8271 13.5577 20.6731 13.5577H19.3846V11.75C19.3846 10.1346 20.1154 10.1346 20.8462 10.1346H21.7885C21.9432 10.141 22.0975 10.1133 22.2404 10.0535C22.3833 9.99366 22.5113 9.90319 22.6154 9.78846C22.7271 9.68207 22.8156 9.55364 22.8752 9.41131C22.9348 9.26897 22.9642 9.11582 22.9615 8.96154V7.53846C22.9667 7.38187 22.9409 7.22579 22.8857 7.07917C22.8304 6.93254 22.7469 6.79824 22.6397 6.68393C22.5325 6.56963 22.4039 6.47756 22.2611 6.41301C22.1184 6.34845 21.9643 6.31266 21.8077 6.30769H19.5962C18.9509 6.28343 18.308 6.39954 17.712 6.64799C17.1159 6.89645 16.5809 7.27133 16.1439 7.74674C15.7069 8.22215 15.3783 8.78675 15.1808 9.40156C14.9833 10.0164 14.9216 10.6667 15 11.3077V13.5577H13.7692C13.6136 13.5551 13.459 13.5836 13.3144 13.6414C13.1699 13.6992 13.0383 13.7852 12.9273 13.8944C12.8163 14.0036 12.7282 14.1338 12.668 14.2774C12.6079 14.421 12.5769 14.5751 12.5769 14.7308V16.2115C12.5769 16.3672 12.6079 16.5213 12.668 16.6649C12.7282 16.8085 12.8163 16.9387 12.9273 17.0479C13.0383 17.1571 13.1699 17.2431 13.3144 17.3009C13.459 17.3587 13.6136 17.3872 13.7692 17.3846H15V26.5H3.92308C3.41305 26.5 2.9239 26.2974 2.56326 25.9367C2.20261 25.5761 2 25.087 2 24.5769Z" stroke="#F5CB5C" stroke-width="3" stroke-linecap="round" stroke-linejoin="round"/>
</svg>
