<svg width="14" height="14" viewBox="0 0 14 14" fill="none" xmlns="http://www.w3.org/2000/svg">
<path d="M11.5 5C11.5 7.49 7 13.5 7 13.5C7 13.5 2.5 7.49 2.5 5C2.5 3.80653 2.97411 2.66193 3.81802 1.81802C4.66193 0.974106 5.80653 0.5 7 0.5C8.19347 0.5 9.33807 0.974106 10.182 1.81802C11.0259 2.66193 11.5 3.80653 11.5 5V5Z" stroke="#000001" stroke-linecap="round" stroke-linejoin="round"/>
<path d="M7 6.5C7.82843 6.5 8.5 5.82843 8.5 5C8.5 4.17157 7.82843 3.5 7 3.5C6.17157 3.5 5.5 4.17157 5.5 5C5.5 5.82843 6.17157 6.5 7 6.5Z" stroke="#000001" stroke-linecap="round" stroke-linejoin="round"/>
</svg>
