<svg width="49" height="49" viewBox="0 0 49 49" fill="none" xmlns="http://www.w3.org/2000/svg">
<path d="M43.5387 10.6538H5.46156C3.54979 10.6538 2 12.2036 2 14.1154V43.5386C2 45.4503 3.54979 47.0001 5.46156 47.0001H43.5387C45.4504 47.0001 47.0002 45.4503 47.0002 43.5386V14.1154C47.0002 12.2036 45.4504 10.6538 43.5387 10.6538Z" stroke="#F5CC5C" stroke-width="4" stroke-linecap="round" stroke-linejoin="round"/>
<path d="M34.8847 19.3074H14.1154C12.2036 19.3074 10.6538 20.8572 10.6538 22.7689V34.8844C10.6538 36.7961 12.2036 38.3459 14.1154 38.3459H34.8847C36.7965 38.3459 38.3463 36.7961 38.3463 34.8844V22.7689C38.3463 20.8572 36.7965 19.3074 34.8847 19.3074Z" stroke="#F5CC5C" stroke-width="4" stroke-linecap="round" stroke-linejoin="round"/>
<path d="M17.5769 1.99976L24.5 10.6536L31.4231 1.99976" stroke="#F5CC5C" stroke-width="4" stroke-linecap="round" stroke-linejoin="round"/>
</svg>
