<svg width="258" height="57" viewBox="0 0 258 57" fill="none" xmlns="http://www.w3.org/2000/svg">
<path d="M43.5387 14.6538H5.46156C3.54979 14.6538 2 16.2036 2 18.1154V47.5386C2 49.4503 3.54979 51.0001 5.46156 51.0001H43.5387C45.4504 51.0001 47.0002 49.4503 47.0002 47.5386V18.1154C47.0002 16.2036 45.4504 14.6538 43.5387 14.6538Z" stroke="#F5CC5C" stroke-width="4" stroke-linecap="round" stroke-linejoin="round"/>
<path d="M34.8847 23.3074H14.1154C12.2036 23.3074 10.6538 24.8572 10.6538 26.7689V38.8844C10.6538 40.7961 12.2036 42.3459 14.1154 42.3459H34.8847C36.7965 42.3459 38.3463 40.7961 38.3463 38.8844V26.7689C38.3463 24.8572 36.7965 23.3074 34.8847 23.3074Z" stroke="#F5CC5C" stroke-width="4" stroke-linecap="round" stroke-linejoin="round"/>
<path d="M17.5769 5.99976L24.5 14.6536L31.4231 5.99976" stroke="#F5CC5C" stroke-width="4" stroke-linecap="round" stroke-linejoin="round"/>
<path d="M73.9402 33.285C73.6369 33.5417 73.2402 33.7517 72.7502 33.915C72.2836 34.055 71.7352 34.125 71.1052 34.125C70.2652 34.125 69.5652 34.02 69.0052 33.81C68.4686 33.6 68.1186 33.2383 67.9552 32.725C67.3019 30.6717 66.7652 29.015 66.3452 27.755C65.9252 26.4717 65.5986 25.3517 65.3652 24.395H65.1902C65.1202 25.7717 65.0619 27.0317 65.0152 28.175C64.9919 29.295 64.9686 30.3917 64.9452 31.465C64.9452 32.5383 64.9219 33.6233 64.8752 34.72C64.8519 35.8167 64.8052 37.03 64.7352 38.36C64.4319 38.4767 64.0352 38.57 63.5452 38.64C63.0552 38.7333 62.5652 38.78 62.0752 38.78C61.0486 38.78 60.2436 38.6167 59.6602 38.29C59.1002 37.9633 58.8202 37.3683 58.8202 36.505L59.8352 18.655C60.0219 18.3517 60.4302 18.025 61.0602 17.675C61.6902 17.325 62.5769 17.15 63.7202 17.15C64.9569 17.15 65.9252 17.3483 66.6252 17.745C67.3252 18.1183 67.8386 18.7367 68.1652 19.6C68.3752 20.16 68.5969 20.8017 68.8302 21.525C69.0869 22.2483 69.3319 22.995 69.5652 23.765C69.8219 24.535 70.0669 25.305 70.3002 26.075C70.5336 26.8217 70.7436 27.4983 70.9302 28.105H71.1052C71.6652 26.145 72.2252 24.255 72.7852 22.435C73.3452 20.5917 73.8586 19.0517 74.3252 17.815C74.6752 17.6283 75.1186 17.4767 75.6552 17.36C76.2152 17.22 76.8336 17.15 77.5102 17.15C78.6536 17.15 79.5869 17.325 80.3102 17.675C81.0336 18.0017 81.4536 18.48 81.5702 19.11C81.6636 19.5767 81.7569 20.3 81.8502 21.28C81.9669 22.2367 82.0836 23.3217 82.2002 24.535C82.3169 25.7483 82.4336 27.0317 82.5502 28.385C82.6669 29.7383 82.7719 31.045 82.8652 32.305C82.9819 33.5417 83.0752 34.685 83.1452 35.735C83.2152 36.7617 83.2619 37.555 83.2852 38.115C82.8886 38.3483 82.4686 38.5117 82.0252 38.605C81.6052 38.7217 81.0569 38.78 80.3802 38.78C79.4936 38.78 78.7469 38.6283 78.1402 38.325C77.5336 38.0217 77.2069 37.4267 77.1602 36.54C77.0202 33.9967 76.9269 31.71 76.8802 29.68C76.8569 27.65 76.8102 25.9467 76.7402 24.57H76.5652C76.3319 25.48 75.9936 26.6233 75.5502 28C75.1069 29.3767 74.5702 31.1383 73.9402 33.285ZM104.179 29.995C104.179 31.4417 103.957 32.7367 103.514 33.88C103.071 35 102.441 35.945 101.624 36.715C100.831 37.485 99.8742 38.0683 98.7542 38.465C97.6342 38.8617 96.3858 39.06 95.0092 39.06C93.6325 39.06 92.3842 38.85 91.2642 38.43C90.1442 38.01 89.1758 37.415 88.3592 36.645C87.5658 35.8517 86.9475 34.895 86.5042 33.775C86.0608 32.655 85.8392 31.395 85.8392 29.995C85.8392 28.6183 86.0608 27.37 86.5042 26.25C86.9475 25.13 87.5658 24.185 88.3592 23.415C89.1758 22.6217 90.1442 22.015 91.2642 21.595C92.3842 21.175 93.6325 20.965 95.0092 20.965C96.3858 20.965 97.6342 21.1867 98.7542 21.63C99.8742 22.05 100.831 22.6567 101.624 23.45C102.441 24.22 103.071 25.165 103.514 26.285C103.957 27.405 104.179 28.6417 104.179 29.995ZM91.9292 29.995C91.9292 31.4183 92.1975 32.515 92.7342 33.285C93.2942 34.0317 94.0642 34.405 95.0442 34.405C96.0242 34.405 96.7708 34.02 97.2842 33.25C97.8208 32.48 98.0892 31.395 98.0892 29.995C98.0892 28.595 97.8208 27.5217 97.2842 26.775C96.7475 26.005 95.9892 25.62 95.0092 25.62C94.0292 25.62 93.2708 26.005 92.7342 26.775C92.1975 27.5217 91.9292 28.595 91.9292 29.995ZM124.687 29.995C124.687 31.4417 124.465 32.7367 124.022 33.88C123.579 35 122.949 35.945 122.132 36.715C121.339 37.485 120.382 38.0683 119.262 38.465C118.142 38.8617 116.894 39.06 115.517 39.06C114.14 39.06 112.892 38.85 111.772 38.43C110.652 38.01 109.684 37.415 108.867 36.645C108.074 35.8517 107.455 34.895 107.012 33.775C106.569 32.655 106.347 31.395 106.347 29.995C106.347 28.6183 106.569 27.37 107.012 26.25C107.455 25.13 108.074 24.185 108.867 23.415C109.684 22.6217 110.652 22.015 111.772 21.595C112.892 21.175 114.14 20.965 115.517 20.965C116.894 20.965 118.142 21.1867 119.262 21.63C120.382 22.05 121.339 22.6567 122.132 23.45C122.949 24.22 123.579 25.165 124.022 26.285C124.465 27.405 124.687 28.6417 124.687 29.995ZM112.437 29.995C112.437 31.4183 112.705 32.515 113.242 33.285C113.802 34.0317 114.572 34.405 115.552 34.405C116.532 34.405 117.279 34.02 117.792 33.25C118.329 32.48 118.597 31.395 118.597 29.995C118.597 28.595 118.329 27.5217 117.792 26.775C117.255 26.005 116.497 25.62 115.517 25.62C114.537 25.62 113.779 26.005 113.242 26.775C112.705 27.5217 112.437 28.595 112.437 29.995ZM138.52 38.045C138.194 38.3017 137.715 38.5117 137.085 38.675C136.455 38.8383 135.744 38.92 134.95 38.92C134.04 38.92 133.247 38.8033 132.57 38.57C131.917 38.3367 131.462 37.9633 131.205 37.45C130.995 37.0533 130.739 36.505 130.435 35.805C130.155 35.0817 129.852 34.2883 129.525 33.425C129.199 32.5383 128.86 31.5933 128.51 30.59C128.16 29.5867 127.822 28.595 127.495 27.615C127.192 26.635 126.912 25.69 126.655 24.78C126.399 23.87 126.189 23.065 126.025 22.365C126.352 22.0383 126.784 21.7583 127.32 21.525C127.88 21.2683 128.487 21.14 129.14 21.14C129.957 21.14 130.622 21.315 131.135 21.665C131.672 21.9917 132.069 22.6217 132.325 23.555L133.69 28.91C133.947 29.96 134.192 30.9167 134.425 31.78C134.659 32.62 134.834 33.2733 134.95 33.74H135.125C135.569 32.0133 136.035 30.1 136.525 28C137.015 25.9 137.459 23.835 137.855 21.805C138.252 21.595 138.695 21.4317 139.185 21.315C139.699 21.1983 140.189 21.14 140.655 21.14C141.472 21.14 142.16 21.315 142.72 21.665C143.28 22.015 143.56 22.6217 143.56 23.485C143.56 23.8583 143.467 24.4067 143.28 25.13C143.117 25.83 142.895 26.635 142.615 27.545C142.359 28.4317 142.044 29.3767 141.67 30.38C141.32 31.3833 140.959 32.3633 140.585 33.32C140.212 34.2767 139.839 35.175 139.465 36.015C139.115 36.8317 138.8 37.5083 138.52 38.045ZM161.583 17.29C161.746 17.5467 161.886 17.8967 162.003 18.34C162.143 18.76 162.213 19.2033 162.213 19.67C162.213 20.58 162.014 21.2333 161.618 21.63C161.244 22.0033 160.731 22.19 160.078 22.19H152.728V26.145H160.393C160.579 26.4017 160.731 26.74 160.848 27.16C160.988 27.58 161.058 28.0233 161.058 28.49C161.058 29.3767 160.859 30.0183 160.463 30.415C160.089 30.7883 159.576 30.975 158.923 30.975H152.798V38.36C152.541 38.43 152.133 38.5 151.573 38.57C151.036 38.64 150.499 38.675 149.963 38.675C149.426 38.675 148.948 38.6283 148.528 38.535C148.131 38.465 147.793 38.325 147.513 38.115C147.233 37.905 147.023 37.6133 146.883 37.24C146.743 36.8667 146.673 36.3767 146.673 35.77V20.545C146.673 19.5417 146.964 18.7483 147.548 18.165C148.131 17.5817 148.924 17.29 149.928 17.29H161.583ZM170.866 38.465C170.61 38.5117 170.225 38.57 169.711 38.64C169.221 38.7333 168.72 38.78 168.206 38.78C167.693 38.78 167.226 38.745 166.806 38.675C166.41 38.605 166.071 38.465 165.791 38.255C165.511 38.045 165.29 37.765 165.126 37.415C164.986 37.0417 164.916 36.5633 164.916 35.98V15.68C165.173 15.6333 165.546 15.575 166.036 15.505C166.55 15.4117 167.063 15.365 167.576 15.365C168.09 15.365 168.545 15.4 168.941 15.47C169.361 15.54 169.711 15.68 169.991 15.89C170.271 16.1 170.481 16.3917 170.621 16.765C170.785 17.115 170.866 17.5817 170.866 18.165V38.465ZM174.481 16.765C174.481 15.8783 174.773 15.1317 175.356 14.525C175.963 13.9183 176.756 13.615 177.736 13.615C178.716 13.615 179.498 13.9183 180.081 14.525C180.688 15.1317 180.991 15.8783 180.991 16.765C180.991 17.6517 180.688 18.3983 180.081 19.005C179.498 19.6117 178.716 19.915 177.736 19.915C176.756 19.915 175.963 19.6117 175.356 19.005C174.773 18.3983 174.481 17.6517 174.481 16.765ZM180.711 38.465C180.454 38.5117 180.069 38.57 179.556 38.64C179.066 38.7333 178.564 38.78 178.051 38.78C177.538 38.78 177.071 38.745 176.651 38.675C176.254 38.605 175.916 38.465 175.636 38.255C175.356 38.045 175.134 37.765 174.971 37.415C174.831 37.0417 174.761 36.5633 174.761 35.98V21.735C175.018 21.6883 175.391 21.63 175.881 21.56C176.394 21.4667 176.908 21.42 177.421 21.42C177.934 21.42 178.389 21.455 178.786 21.525C179.206 21.595 179.556 21.735 179.836 21.945C180.116 22.155 180.326 22.4467 180.466 22.82C180.629 23.17 180.711 23.6367 180.711 24.22V38.465ZM183.554 24.255C183.741 23.3683 184.102 22.645 184.639 22.085C185.199 21.525 185.887 21.245 186.704 21.245C187.474 21.245 188.069 21.4317 188.489 21.805C188.909 22.1783 189.376 22.7033 189.889 23.38L192.129 26.32L195.874 21.245C197.157 21.245 198.172 21.4783 198.919 21.945C199.666 22.3883 200.039 22.995 200.039 23.765C200.039 24.0683 199.992 24.3483 199.899 24.605C199.829 24.8383 199.712 25.0833 199.549 25.34C199.386 25.5967 199.176 25.8883 198.919 26.215C198.662 26.5417 198.359 26.9267 198.009 27.37L195.699 29.96L200.284 36.015C200.167 36.9017 199.817 37.6017 199.234 38.115C198.651 38.6283 197.951 38.885 197.134 38.885C196.247 38.8617 195.536 38.605 194.999 38.115C194.486 37.625 193.984 37.03 193.494 36.33L191.604 33.635L188.034 38.78C187.917 38.78 187.789 38.78 187.649 38.78C187.509 38.8033 187.392 38.815 187.299 38.815C186.109 38.815 185.199 38.57 184.569 38.08C183.962 37.59 183.659 36.9833 183.659 36.26C183.659 35.7 183.787 35.21 184.044 34.79C184.324 34.3467 184.791 33.7517 185.444 33.005L188.244 29.75L183.554 24.255Z" fill="#F5CC5C"/>
</svg>
