<svg width="25" height="26" viewBox="0 0 25 26" fill="none" xmlns="http://www.w3.org/2000/svg">
<g clip-path="url(#clip0_49_967)">
<path d="M8.30356 4.60425L7.60713 4.76608C7.6702 5.04247 7.67809 5.32872 7.63032 5.6082C7.58255 5.88769 7.48009 6.15482 7.32889 6.39407C7.17768 6.63333 6.98076 6.83993 6.74956 7.00187C6.51835 7.16381 6.25749 7.27786 5.98213 7.33738C5.42376 7.45566 4.84159 7.34862 4.36075 7.03929C3.87991 6.72995 3.53879 6.24301 3.4107 5.68312L2.01784 5.97082C1.82683 6.01278 1.64625 6.09331 1.48701 6.20752C1.32777 6.32174 1.19318 6.46727 1.09137 6.63534C0.989556 6.8034 0.922637 6.9905 0.894654 7.18534C0.866671 7.38018 0.878204 7.57871 0.928558 7.76893C0.928558 7.76893 1.57141 10.7718 2.32141 14.1522" stroke="#000001" stroke-width="2" stroke-linecap="round" stroke-linejoin="round"/>
<path d="M21.6964 4.58623C21.5897 4.889 21.4231 5.1668 21.2066 5.40281C20.9901 5.63881 20.7283 5.82811 20.437 5.95923C20.1458 6.09035 19.8311 6.16057 19.5121 6.16562C19.1931 6.17067 18.8764 6.11046 18.5811 5.98862C18.2859 5.86679 18.0183 5.68587 17.7946 5.45684C17.5708 5.2278 17.3956 4.95541 17.2795 4.65617C17.1634 4.35693 17.1088 4.03707 17.1191 3.71597C17.1294 3.39487 17.2043 3.07921 17.3393 2.78811L15.8928 2.10483C15.5066 1.94275 15.0725 1.94059 14.6847 2.09881C14.2969 2.25703 13.9867 2.56287 13.8214 2.94994L7.82141 17.173L7.0357 18.9711C6.87474 19.3601 6.87259 19.7972 7.02972 20.1877C7.18685 20.5782 7.49057 20.8906 7.87498 21.057L15.125 24.1677C15.5112 24.3298 15.9453 24.3319 16.3331 24.1737C16.721 24.0155 17.0311 23.7097 17.1964 23.3226L23.9821 7.24744C24.1317 6.87363 24.1358 6.45674 23.9934 6.08006C23.8511 5.70338 23.5728 5.39466 23.2143 5.21557L21.6964 4.58623Z" stroke="#000001" stroke-width="2" stroke-linecap="round" stroke-linejoin="round"/>
</g>
<defs>
<clipPath id="clip0_49_967">
<rect width="25" height="25.1736" fill="white" transform="translate(0 0.576416)"/>
</clipPath>
</defs>
</svg>
