<svg width="29" height="26" viewBox="0 0 29 26" fill="none" xmlns="http://www.w3.org/2000/svg">
<path d="M8.65633 17.7007C7.25691 18.7999 5.65068 19.6064 3.93322 20.0721C3.74405 20.1408 3.58061 20.266 3.4651 20.4308C3.3496 20.5956 3.28764 20.792 3.28764 20.9932C3.28764 21.1944 3.3496 21.3908 3.4651 21.5556C3.58061 21.7204 3.74405 21.8456 3.93322 21.9143C17.495 27.4801 26.1181 18.8766 24.805 9.33243L27 4.78571H24.4523C21.2774 0.885715 12.8503 1.0817 14.2417 9.39122C14.2417 9.39122 9.73421 10.1947 3.97242 4.53093C3.83914 4.39935 3.67093 4.30871 3.48773 4.26977C3.30453 4.23082 3.11401 4.24519 2.93873 4.31118C2.76344 4.37717 2.61074 4.49201 2.49871 4.64211C2.38668 4.7922 2.32 4.97125 2.30659 5.15807C1.69735 7.66239 2.00224 10.3019 3.16636 12.6014C4.33047 14.9009 6.27732 16.7092 8.65633 17.7007V17.7007Z" stroke="#F5CB5C" stroke-width="3" stroke-linecap="round" stroke-linejoin="round"/>
</svg>
