<svg width="128" height="68" viewBox="0 0 128 68" fill="none" xmlns="http://www.w3.org/2000/svg">
<g clip-path="url(#clip0_52_3895)">
<path d="M56.8781 6.16699L55.7638 6.42413C55.8647 6.8633 55.8773 7.31816 55.8009 7.76224C55.7245 8.20633 55.5605 8.6308 55.3186 9.01096C55.0767 9.39113 54.7616 9.71942 54.3917 9.97673C54.0217 10.2341 53.6044 10.4153 53.1638 10.5098C52.2704 10.6978 51.3389 10.5277 50.5696 10.0362C49.8002 9.54466 49.2544 8.77093 49.0495 7.88128L46.8209 8.33842C46.5153 8.40511 46.2264 8.53305 45.9716 8.71454C45.7168 8.89602 45.5015 9.12728 45.3386 9.39432C45.1757 9.66137 45.0686 9.95867 45.0238 10.2683C44.9791 10.5779 44.9975 10.8933 45.0781 11.1956C45.0781 11.1956 46.1066 15.967 47.3066 21.3384" stroke="#F5CC5C" stroke-width="3" stroke-linecap="round" stroke-linejoin="round"/>
<path d="M78.3066 6.13852C78.1359 6.61961 77.8693 7.06103 77.5229 7.43604C77.1766 7.81105 76.7577 8.11183 76.2916 8.32018C75.8256 8.52853 75.3221 8.64009 74.8117 8.64812C74.3013 8.65615 73.7945 8.56047 73.3222 8.36688C72.8498 8.17329 72.4217 7.88582 72.0637 7.52189C71.7057 7.15796 71.4254 6.72514 71.2396 6.24966C71.0538 5.77418 70.9665 5.26593 70.9829 4.75571C70.9994 4.24549 71.1192 3.74392 71.3352 3.28138L69.0209 2.19567C68.403 1.93813 67.7084 1.9347 67.0879 2.1861C66.4674 2.43751 65.9711 2.92347 65.7066 3.53852L56.1066 26.1385L54.8495 28.9957C54.592 29.6136 54.5885 30.3082 54.8399 30.9287C55.0913 31.5492 55.5773 32.0455 56.1924 32.31L67.7924 37.2528C68.4103 37.5103 69.1049 37.5138 69.7254 37.2624C70.3459 37.011 70.8422 36.525 71.1066 35.91L81.9638 10.3671C82.2032 9.77312 82.2096 9.1107 81.9819 8.51217C81.7541 7.91364 81.3089 7.42309 80.7352 7.13852L78.3066 6.13852Z" stroke="#F5CC5C" stroke-width="3" stroke-linecap="round" stroke-linejoin="round"/>
</g>
<path d="M11.0139 56.9102H8.68084C8.63823 56.6083 8.55123 56.3402 8.41983 56.1058C8.28844 55.8679 8.11976 55.6655 7.9138 55.4986C7.70783 55.3317 7.4699 55.2038 7.20002 55.1151C6.93368 55.0263 6.64426 54.9819 6.33176 54.9819C5.76713 54.9819 5.2753 55.1222 4.85627 55.4027C4.43723 55.6797 4.1123 56.0845 3.88148 56.6172C3.65066 57.1463 3.53525 57.7891 3.53525 58.5455C3.53525 59.3232 3.65066 59.9766 3.88148 60.5057C4.11586 61.0348 4.44256 61.4343 4.86159 61.7042C5.28063 61.9741 5.76536 62.109 6.31578 62.109C6.62473 62.109 6.9106 62.0682 7.17338 61.9865C7.43972 61.9048 7.67587 61.7859 7.88184 61.6296C8.0878 61.4698 8.25826 61.2763 8.3932 61.049C8.53169 60.8217 8.62757 60.5625 8.68084 60.2713L11.0139 60.282C10.9536 60.7827 10.8026 61.2656 10.5612 61.7308C10.3232 62.1925 10.0019 62.6062 9.59704 62.9719C9.19576 63.3342 8.71635 63.6218 8.15882 63.8349C7.60485 64.0444 6.97807 64.1491 6.2785 64.1491C5.30549 64.1491 4.43546 63.929 3.66841 63.4886C2.90492 63.0483 2.30123 62.4109 1.85733 61.5763C1.41699 60.7418 1.19682 59.7315 1.19682 58.5455C1.19682 57.3558 1.42054 56.3438 1.86799 55.5092C2.31543 54.6747 2.92267 54.0391 3.68972 53.6023C4.45677 53.1619 5.31969 52.9418 6.2785 52.9418C6.9106 52.9418 7.49654 53.0305 8.03631 53.2081C8.57963 53.3857 9.06081 53.6449 9.47985 53.9858C9.89888 54.3232 10.2398 54.7369 10.5026 55.2269C10.7689 55.717 10.9394 56.2781 11.0139 56.9102ZM12.6679 64V53.0909H14.9743V57.592H19.6565V53.0909H21.9577V64H19.6565V59.4936H14.9743V64H12.6679ZM23.8593 64V53.0909H31.2101V54.9925H26.1657V57.592H30.8319V59.4936H26.1657V62.0984H31.2314V64H23.8593ZM42.6692 56.9102H40.3361C40.2935 56.6083 40.2065 56.3402 40.0751 56.1058C39.9437 55.8679 39.775 55.6655 39.5691 55.4986C39.3631 55.3317 39.1252 55.2038 38.8553 55.1151C38.589 55.0263 38.2995 54.9819 37.987 54.9819C37.4224 54.9819 36.9306 55.1222 36.5115 55.4027C36.0925 55.6797 35.7676 56.0845 35.5368 56.6172C35.3059 57.1463 35.1905 57.7891 35.1905 58.5455C35.1905 59.3232 35.3059 59.9766 35.5368 60.5057C35.7711 61.0348 36.0978 61.4343 36.5169 61.7042C36.9359 61.9741 37.4206 62.109 37.9711 62.109C38.28 62.109 38.5659 62.0682 38.8287 61.9865C39.095 61.9048 39.3311 61.7859 39.5371 61.6296C39.7431 61.4698 39.9135 61.2763 40.0485 61.049C40.187 60.8217 40.2828 60.5625 40.3361 60.2713L42.6692 60.282C42.6088 60.7827 42.4579 61.2656 42.2164 61.7308C41.9785 62.1925 41.6571 62.6062 41.2523 62.9719C40.851 63.3342 40.3716 63.6218 39.8141 63.8349C39.2601 64.0444 38.6333 64.1491 37.9338 64.1491C36.9608 64.1491 36.0907 63.929 35.3237 63.4886C34.5602 63.0483 33.9565 62.4109 33.5126 61.5763C33.0723 60.7418 32.8521 59.7315 32.8521 58.5455C32.8521 57.3558 33.0758 56.3438 33.5233 55.5092C33.9707 54.6747 34.5779 54.0391 35.345 53.6023C36.112 53.1619 36.975 52.9418 37.9338 52.9418C38.5659 52.9418 39.1518 53.0305 39.6916 53.2081C40.2349 53.3857 40.7161 53.6449 41.1351 53.9858C41.5542 54.3232 41.8951 54.7369 42.1578 55.2269C42.4242 55.717 42.5946 56.2781 42.6692 56.9102ZM44.3232 64V53.0909H46.6296V57.9009H46.7734L50.6992 53.0909H53.4638L49.4155 57.9755L53.5117 64H50.7525L47.7642 59.5149L46.6296 60.8999V64H44.3232ZM58.1366 64V53.0909H62.5045C63.3071 53.0909 63.9765 53.2099 64.5127 53.4478C65.0489 53.6857 65.452 54.016 65.7219 54.4386C65.9917 54.8576 66.1267 55.3406 66.1267 55.8874C66.1267 56.3136 66.0415 56.6882 65.871 57.0114C65.7006 57.331 65.4662 57.5937 65.1679 57.7997C64.8731 58.0021 64.5358 58.146 64.1558 58.2312V58.3377C64.5713 58.3555 64.9601 58.4727 65.3224 58.6893C65.6881 58.9059 65.9846 59.2095 66.2119 59.6001C66.4392 59.9872 66.5528 60.4489 66.5528 60.9851C66.5528 61.5639 66.409 62.0806 66.1214 62.5352C65.8373 62.9862 65.4165 63.343 64.8589 63.6058C64.3014 63.8686 63.6143 64 62.7975 64H58.1366ZM60.4431 62.1143H62.3234C62.9662 62.1143 63.4349 61.9918 63.7297 61.7468C64.0244 61.4982 64.1718 61.168 64.1718 60.756C64.1718 60.4542 64.099 60.1879 63.9534 59.957C63.8078 59.7262 63.6001 59.5451 63.3302 59.4137C63.0638 59.2823 62.746 59.2166 62.3767 59.2166H60.4431V62.1143ZM60.4431 57.6559H62.153C62.469 57.6559 62.7496 57.6009 62.9946 57.4908C63.2432 57.3771 63.4385 57.2173 63.5805 57.0114C63.7261 56.8054 63.7989 56.5586 63.7989 56.271C63.7989 55.8768 63.6586 55.5589 63.3781 55.3175C63.1011 55.076 62.7069 54.9553 62.1956 54.9553H60.4431V57.6559ZM78.0785 58.5455C78.0785 59.7351 77.853 60.7472 77.402 61.5817C76.9545 62.4162 76.3438 63.0536 75.5696 63.494C74.799 63.9308 73.9325 64.1491 72.9702 64.1491C72.0007 64.1491 71.1307 63.929 70.3601 63.4886C69.5895 63.0483 68.9805 62.4109 68.533 61.5763C68.0856 60.7418 67.8619 59.7315 67.8619 58.5455C67.8619 57.3558 68.0856 56.3438 68.533 55.5092C68.9805 54.6747 69.5895 54.0391 70.3601 53.6023C71.1307 53.1619 72.0007 52.9418 72.9702 52.9418C73.9325 52.9418 74.799 53.1619 75.5696 53.6023C76.3438 54.0391 76.9545 54.6747 77.402 55.5092C77.853 56.3438 78.0785 57.3558 78.0785 58.5455ZM75.7401 58.5455C75.7401 57.7749 75.6246 57.125 75.3938 56.5959C75.1665 56.0668 74.8452 55.6655 74.4297 55.392C74.0142 55.1186 73.5277 54.9819 72.9702 54.9819C72.4126 54.9819 71.9261 55.1186 71.5107 55.392C71.0952 55.6655 70.772 56.0668 70.5412 56.5959C70.3139 57.125 70.2003 57.7749 70.2003 58.5455C70.2003 59.3161 70.3139 59.9659 70.5412 60.495C70.772 61.0241 71.0952 61.4254 71.5107 61.6989C71.9261 61.9723 72.4126 62.109 72.9702 62.109C73.5277 62.109 74.0142 61.9723 74.4297 61.6989C74.8452 61.4254 75.1665 61.0241 75.3938 60.495C75.6246 59.9659 75.7401 59.3161 75.7401 58.5455ZM89.8119 58.5455C89.8119 59.7351 89.5864 60.7472 89.1354 61.5817C88.6879 62.4162 88.0771 63.0536 87.303 63.494C86.5324 63.9308 85.6659 64.1491 84.7036 64.1491C83.7341 64.1491 82.8641 63.929 82.0935 63.4886C81.3229 63.0483 80.7139 62.4109 80.2664 61.5763C79.819 60.7418 79.5953 59.7315 79.5953 58.5455C79.5953 57.3558 79.819 56.3438 80.2664 55.5092C80.7139 54.6747 81.3229 54.0391 82.0935 53.6023C82.8641 53.1619 83.7341 52.9418 84.7036 52.9418C85.6659 52.9418 86.5324 53.1619 87.303 53.6023C88.0771 54.0391 88.6879 54.6747 89.1354 55.5092C89.5864 56.3438 89.8119 57.3558 89.8119 58.5455ZM87.4735 58.5455C87.4735 57.7749 87.358 57.125 87.1272 56.5959C86.8999 56.0668 86.5786 55.6655 86.1631 55.392C85.7476 55.1186 85.2611 54.9819 84.7036 54.9819C84.146 54.9819 83.6595 55.1186 83.2441 55.392C82.8286 55.6655 82.5054 56.0668 82.2746 56.5959C82.0473 57.125 81.9337 57.7749 81.9337 58.5455C81.9337 59.3161 82.0473 59.9659 82.2746 60.495C82.5054 61.0241 82.8286 61.4254 83.2441 61.6989C83.6595 61.9723 84.146 62.109 84.7036 62.109C85.2611 62.109 85.7476 61.9723 86.1631 61.6989C86.5786 61.4254 86.8999 61.0241 87.1272 60.495C87.358 59.9659 87.4735 59.3161 87.4735 58.5455ZM91.5204 64V53.0909H93.8269V57.9009H93.9707L97.8965 53.0909H100.661L96.6127 57.9755L100.709 64H97.9498L94.9615 59.5149L93.8269 60.8999V64H91.5204ZM104.169 53.0909V64H101.862V53.0909H104.169ZM115.191 53.0909V64H113.199L108.453 57.1339H108.373V64H106.066V53.0909H108.09L112.799 59.9517H112.895V53.0909H115.191ZM124.33 56.6172C124.256 56.358 124.151 56.1289 124.016 55.93C123.881 55.7276 123.716 55.5572 123.521 55.4187C123.329 55.2766 123.109 55.1683 122.86 55.0938C122.615 55.0192 122.343 54.9819 122.045 54.9819C121.488 54.9819 120.998 55.1204 120.575 55.3974C120.156 55.6744 119.829 56.0774 119.595 56.6065C119.36 57.1321 119.243 57.7749 119.243 58.5348C119.243 59.2947 119.359 59.9411 119.589 60.4737C119.82 61.0064 120.147 61.413 120.57 61.6935C120.992 61.9705 121.491 62.109 122.066 62.109C122.588 62.109 123.034 62.0167 123.403 61.832C123.776 61.6438 124.06 61.3793 124.256 61.0384C124.455 60.6974 124.554 60.2944 124.554 59.8292L125.023 59.8984H122.21V58.1619H126.775V59.5362C126.775 60.495 126.573 61.3189 126.168 62.0078C125.763 62.6932 125.206 63.2223 124.495 63.5952C123.785 63.9645 122.972 64.1491 122.056 64.1491C121.033 64.1491 120.135 63.9237 119.36 63.4727C118.586 63.0181 117.983 62.3736 117.549 61.5391C117.12 60.701 116.905 59.7067 116.905 58.5561C116.905 57.6719 117.033 56.8835 117.288 56.1911C117.548 55.495 117.91 54.9055 118.375 54.4226C118.84 53.9396 119.382 53.5721 120 53.32C120.618 53.0678 121.287 52.9418 122.008 52.9418C122.626 52.9418 123.201 53.0323 123.734 53.2134C124.266 53.391 124.739 53.6431 125.151 53.9698C125.566 54.2965 125.905 54.6854 126.168 55.1364C126.431 55.5838 126.599 56.0774 126.674 56.6172H124.33Z" fill="#F5CC5C"/>
<defs>
<clipPath id="clip0_52_3895">
<rect width="40" height="40" fill="white" transform="translate(44)"/>
</clipPath>
</defs>
</svg>
