<svg width="128" height="68" viewBox="0 0 128 68" fill="none" xmlns="http://www.w3.org/2000/svg">
<g clip-path="url(#clip0_52_3889)">
<path d="M51.0286 16.7148L53.4 35.6291C53.4842 36.326 53.822 36.9675 54.349 37.4312C54.876 37.895 55.5552 38.1485 56.2571 38.1434H71.2C71.9019 38.1485 72.5812 37.895 73.1081 37.4312C73.6351 36.9675 73.9729 36.326 74.0571 35.6291L76.4 16.7148" stroke="#F5CC5C" stroke-width="3" stroke-linecap="round" stroke-linejoin="round"/>
<path d="M75.1429 8.34318C74.7955 8.34865 74.45 8.39662 74.1143 8.48604C74.3754 7.86141 74.5113 7.1916 74.5143 6.51461C74.4622 5.02408 73.8294 3.61299 72.751 2.58268C71.6727 1.55237 70.2342 0.984497 68.7429 1.00032C67.7091 1.00308 66.6955 1.28621 65.81 1.81954C64.9244 2.35288 64.2001 3.11644 63.7143 4.02889C63.2284 3.11644 62.5042 2.35288 61.6186 1.81954C60.7331 1.28621 59.7195 1.00308 58.6857 1.00032C57.2042 0.999414 55.7803 1.57392 54.7142 2.60268C53.6481 3.63143 53.0233 5.03402 52.9714 6.51461C52.9744 7.1916 53.1103 7.86141 53.3714 8.48604C53.0172 8.39187 52.6523 8.34386 52.2857 8.34318C51.1491 8.34318 50.059 8.79471 49.2553 9.59844C48.4515 10.4022 48 11.4923 48 12.6289C48 13.7655 48.4515 14.8556 49.2553 15.6593C50.059 16.4631 51.1491 16.9146 52.2857 16.9146C52.9396 16.9157 53.5857 16.773 54.1782 16.4965C54.7707 16.2199 55.2951 15.8165 55.7143 15.3146C56.0246 16.1551 56.5857 16.8799 57.3216 17.3909C58.0575 17.9019 58.9326 18.1745 59.8286 18.1717C60.6075 18.1879 61.3769 17.9983 62.0592 17.6221C62.7414 17.2459 63.3123 16.6963 63.7143 16.0289C64.1098 16.6742 64.6642 17.2074 65.3244 17.5776C65.9847 17.9477 66.7288 18.1424 67.4857 18.1432C68.3816 18.1459 69.2568 17.8734 69.9927 17.3623C70.7286 16.8513 71.2897 16.1265 71.6 15.286C72.0191 15.7879 72.5436 16.1914 73.1361 16.4679C73.7286 16.7444 74.3747 16.8872 75.0286 16.886C76.1652 16.886 77.2553 16.4345 78.059 15.6308C78.8628 14.8271 79.3143 13.737 79.3143 12.6003C79.3143 11.4637 78.8628 10.3736 78.059 9.56986C77.2553 8.76614 76.1652 8.31461 75.0286 8.31461L75.1429 8.34318Z" stroke="#F5CC5C" stroke-width="3" stroke-linecap="round" stroke-linejoin="round"/>
</g>
<path d="M39.4612 56.9102H37.1281C37.0855 56.6083 36.9985 56.3402 36.8671 56.1058C36.7357 55.8679 36.567 55.6655 36.3611 55.4986C36.1551 55.3317 35.9172 55.2038 35.6473 55.1151C35.3809 55.0263 35.0915 54.9819 34.779 54.9819C34.2144 54.9819 33.7226 55.1222 33.3035 55.4027C32.8845 55.6797 32.5596 56.0845 32.3287 56.6172C32.0979 57.1463 31.9825 57.7891 31.9825 58.5455C31.9825 59.3232 32.0979 59.9766 32.3287 60.5057C32.5631 61.0348 32.8898 61.4343 33.3089 61.7042C33.7279 61.9741 34.2126 62.109 34.7631 62.109C35.072 62.109 35.3579 62.0682 35.6207 61.9865C35.887 61.9048 36.1231 61.7859 36.3291 61.6296C36.5351 61.4698 36.7055 61.2763 36.8405 61.049C36.979 60.8217 37.0748 60.5625 37.1281 60.2713L39.4612 60.282C39.4008 60.7827 39.2499 61.2656 39.0084 61.7308C38.7705 62.1925 38.4491 62.6062 38.0443 62.9719C37.643 63.3342 37.1636 63.6218 36.6061 63.8349C36.0521 64.0444 35.4253 64.1491 34.7258 64.1491C33.7528 64.1491 32.8827 63.929 32.1157 63.4886C31.3522 63.0483 30.7485 62.4109 30.3046 61.5763C29.8643 60.7418 29.6441 59.7315 29.6441 58.5455C29.6441 57.3558 29.8678 56.3438 30.3153 55.5092C30.7627 54.6747 31.3699 54.0391 32.137 53.6023C32.904 53.1619 33.767 52.9418 34.7258 52.9418C35.3579 52.9418 35.9438 53.0305 36.4836 53.2081C37.0269 53.3857 37.5081 53.6449 37.9271 53.9858C38.3461 54.3232 38.6871 54.7369 38.9498 55.2269C39.2162 55.717 39.3866 56.2781 39.4612 56.9102ZM43.4216 53.0909V64H41.1151V53.0909H43.4216ZM54.4439 53.0909V64H52.4517L47.7056 57.1339H47.6257V64H45.3192V53.0909H47.3434L52.0522 59.9517H52.1481V53.0909H54.4439ZM56.3495 64V53.0909H63.7004V54.9925H58.656V57.592H63.3222V59.4936H58.656V62.0984H63.7217V64H56.3495ZM65.5341 53.0909H68.3786L71.3828 60.4205H71.5107L74.5149 53.0909H77.3594V64H75.1222V56.8995H75.0316L72.2085 63.9467H70.685L67.8619 56.8729H67.7713V64H65.5341V53.0909ZM81.14 64H78.6684L82.4344 53.0909H85.4067L89.1673 64H86.6958L83.9632 55.5838H83.8779L81.14 64ZM80.9855 59.712H86.8236V61.5124H80.9855V59.712ZM96.1493 56.2283C96.1067 55.7987 95.9238 55.4648 95.6007 55.2269C95.2775 54.989 94.839 54.87 94.285 54.87C93.9086 54.87 93.5907 54.9233 93.3315 55.0298C93.0723 55.1328 92.8734 55.2766 92.7349 55.4613C92.6 55.646 92.5325 55.8555 92.5325 56.0898C92.5254 56.2852 92.5662 56.4556 92.655 56.6012C92.7473 56.7468 92.8734 56.8729 93.0332 56.9794C93.193 57.0824 93.3777 57.1729 93.5872 57.2511C93.7967 57.3256 94.0204 57.3896 94.2583 57.4428L95.2385 57.6772C95.7143 57.7837 96.1511 57.9258 96.5488 58.1033C96.9466 58.2809 97.291 58.4993 97.5822 58.7585C97.8734 59.0178 98.0989 59.3232 98.2587 59.6747C98.4221 60.0263 98.5055 60.4293 98.5091 60.8839C98.5055 61.5515 98.3351 62.1303 97.9977 62.6204C97.6639 63.1069 97.1809 63.4851 96.5488 63.755C95.9203 64.0213 95.1621 64.1545 94.2743 64.1545C93.3936 64.1545 92.6266 64.0195 91.9732 63.7496C91.3233 63.4798 90.8155 63.0803 90.4498 62.5511C90.0875 62.0185 89.8975 61.3597 89.8798 60.5749H92.1117C92.1365 60.9407 92.2413 61.2461 92.426 61.4911C92.6142 61.7326 92.8645 61.9155 93.177 62.0398C93.4931 62.1605 93.85 62.2209 94.2477 62.2209C94.6383 62.2209 94.9775 62.1641 95.2651 62.0504C95.5563 61.9368 95.7818 61.7788 95.9416 61.5763C96.1014 61.3739 96.1813 61.1413 96.1813 60.8786C96.1813 60.6335 96.1085 60.4276 95.9629 60.2607C95.8208 60.0937 95.6113 59.9517 95.3343 59.8345C95.0609 59.7173 94.7253 59.6108 94.3276 59.5149L93.1397 59.2166C92.22 58.9929 91.4938 58.6431 90.9611 58.1673C90.4284 57.6914 90.1639 57.0504 90.1674 56.2443C90.1639 55.5838 90.3397 55.0067 90.6948 54.5131C91.0534 54.0195 91.5453 53.6342 92.1703 53.3572C92.7953 53.0803 93.5055 52.9418 94.301 52.9418C95.1106 52.9418 95.8173 53.0803 96.421 53.3572C97.0282 53.6342 97.5005 54.0195 97.8379 54.5131C98.1752 55.0067 98.3493 55.5785 98.3599 56.2283H96.1493Z" fill="#F5CC5C"/>
<defs>
<clipPath id="clip0_52_3889">
<rect width="40" height="40" fill="white" transform="translate(44)"/>
</clipPath>
</defs>
</svg>
