<svg width="295" height="64" viewBox="0 0 295 64" fill="none" xmlns="http://www.w3.org/2000/svg">
<path d="M53.7692 15.0767H7.23077C4.89418 15.0767 3 16.9708 3 19.3074V55.269C3 57.6056 4.89418 59.4997 7.23077 59.4997H53.7692C56.1058 59.4997 58 57.6056 58 55.269V19.3074C58 16.9708 56.1058 15.0767 53.7692 15.0767Z" stroke="#F5CC5C" stroke-width="5" stroke-linecap="round" stroke-linejoin="round"/>
<path d="M43.1923 25.6538H17.8077C15.4711 25.6538 13.5769 27.548 13.5769 29.8846V44.6923C13.5769 47.0289 15.4711 48.923 17.8077 48.923H43.1923C45.5289 48.923 47.4231 47.0289 47.4231 44.6923V29.8846C47.4231 27.548 45.5289 25.6538 43.1923 25.6538Z" stroke="#F5CC5C" stroke-width="5" stroke-linecap="round" stroke-linejoin="round"/>
<path d="M22.0385 4.5L30.5 15.0769L38.9615 4.5" stroke="#F5CC5C" stroke-width="5" stroke-linecap="round" stroke-linejoin="round"/>
<path d="M89.78 38.295C89.39 38.625 88.88 38.895 88.25 39.105C87.65 39.285 86.945 39.375 86.135 39.375C85.055 39.375 84.155 39.24 83.435 38.97C82.745 38.7 82.295 38.235 82.085 37.575C81.245 34.935 80.555 32.805 80.015 31.185C79.475 29.535 79.055 28.095 78.755 26.865H78.53C78.44 28.635 78.365 30.255 78.305 31.725C78.275 33.165 78.245 34.575 78.215 35.955C78.215 37.335 78.185 38.73 78.125 40.14C78.095 41.55 78.035 43.11 77.945 44.82C77.555 44.97 77.045 45.09 76.415 45.18C75.785 45.3 75.155 45.36 74.525 45.36C73.205 45.36 72.17 45.15 71.42 44.73C70.7 44.31 70.34 43.545 70.34 42.435L71.645 19.485C71.885 19.095 72.41 18.675 73.22 18.225C74.03 17.775 75.17 17.55 76.64 17.55C78.23 17.55 79.475 17.805 80.375 18.315C81.275 18.795 81.935 19.59 82.355 20.7C82.625 21.42 82.91 22.245 83.21 23.175C83.54 24.105 83.855 25.065 84.155 26.055C84.485 27.045 84.8 28.035 85.1 29.025C85.4 29.985 85.67 30.855 85.91 31.635H86.135C86.855 29.115 87.575 26.685 88.295 24.345C89.015 21.975 89.675 19.995 90.275 18.405C90.725 18.165 91.295 17.97 91.985 17.82C92.705 17.64 93.5 17.55 94.37 17.55C95.84 17.55 97.04 17.775 97.97 18.225C98.9 18.645 99.44 19.26 99.59 20.07C99.71 20.67 99.83 21.6 99.95 22.86C100.1 24.09 100.25 25.485 100.4 27.045C100.55 28.605 100.7 30.255 100.85 31.995C101 33.735 101.135 35.415 101.255 37.035C101.405 38.625 101.525 40.095 101.615 41.445C101.705 42.765 101.765 43.785 101.795 44.505C101.285 44.805 100.745 45.015 100.175 45.135C99.635 45.285 98.93 45.36 98.06 45.36C96.92 45.36 95.96 45.165 95.18 44.775C94.4 44.385 93.98 43.62 93.92 42.48C93.74 39.21 93.62 36.27 93.56 33.66C93.53 31.05 93.47 28.86 93.38 27.09H93.155C92.855 28.26 92.42 29.73 91.85 31.5C91.28 33.27 90.59 35.535 89.78 38.295ZM128.659 34.065C128.659 35.925 128.374 37.59 127.804 39.06C127.234 40.5 126.424 41.715 125.374 42.705C124.354 43.695 123.124 44.445 121.684 44.955C120.244 45.465 118.639 45.72 116.869 45.72C115.099 45.72 113.494 45.45 112.054 44.91C110.614 44.37 109.369 43.605 108.319 42.615C107.299 41.595 106.504 40.365 105.934 38.925C105.364 37.485 105.079 35.865 105.079 34.065C105.079 32.295 105.364 30.69 105.934 29.25C106.504 27.81 107.299 26.595 108.319 25.605C109.369 24.585 110.614 23.805 112.054 23.265C113.494 22.725 115.099 22.455 116.869 22.455C118.639 22.455 120.244 22.74 121.684 23.31C123.124 23.85 124.354 24.63 125.374 25.65C126.424 26.64 127.234 27.855 127.804 29.295C128.374 30.735 128.659 32.325 128.659 34.065ZM112.909 34.065C112.909 35.895 113.254 37.305 113.944 38.295C114.664 39.255 115.654 39.735 116.914 39.735C118.174 39.735 119.134 39.24 119.794 38.25C120.484 37.26 120.829 35.865 120.829 34.065C120.829 32.265 120.484 30.885 119.794 29.925C119.104 28.935 118.129 28.44 116.869 28.44C115.609 28.44 114.634 28.935 113.944 29.925C113.254 30.885 112.909 32.265 112.909 34.065ZM155.026 34.065C155.026 35.925 154.741 37.59 154.171 39.06C153.601 40.5 152.791 41.715 151.741 42.705C150.721 43.695 149.491 44.445 148.051 44.955C146.611 45.465 145.006 45.72 143.236 45.72C141.466 45.72 139.861 45.45 138.421 44.91C136.981 44.37 135.736 43.605 134.686 42.615C133.666 41.595 132.871 40.365 132.301 38.925C131.731 37.485 131.446 35.865 131.446 34.065C131.446 32.295 131.731 30.69 132.301 29.25C132.871 27.81 133.666 26.595 134.686 25.605C135.736 24.585 136.981 23.805 138.421 23.265C139.861 22.725 141.466 22.455 143.236 22.455C145.006 22.455 146.611 22.74 148.051 23.31C149.491 23.85 150.721 24.63 151.741 25.65C152.791 26.64 153.601 27.855 154.171 29.295C154.741 30.735 155.026 32.325 155.026 34.065ZM139.276 34.065C139.276 35.895 139.621 37.305 140.311 38.295C141.031 39.255 142.021 39.735 143.281 39.735C144.541 39.735 145.501 39.24 146.161 38.25C146.851 37.26 147.196 35.865 147.196 34.065C147.196 32.265 146.851 30.885 146.161 29.925C145.471 28.935 144.496 28.44 143.236 28.44C141.976 28.44 141.001 28.935 140.311 29.925C139.621 30.885 139.276 32.265 139.276 34.065ZM172.812 44.415C172.392 44.745 171.777 45.015 170.967 45.225C170.157 45.435 169.242 45.54 168.222 45.54C167.052 45.54 166.032 45.39 165.162 45.09C164.322 44.79 163.737 44.31 163.407 43.65C163.137 43.14 162.807 42.435 162.417 41.535C162.057 40.605 161.667 39.585 161.247 38.475C160.827 37.335 160.392 36.12 159.942 34.83C159.492 33.54 159.057 32.265 158.637 31.005C158.247 29.745 157.887 28.53 157.557 27.36C157.227 26.19 156.957 25.155 156.747 24.255C157.167 23.835 157.722 23.475 158.412 23.175C159.132 22.845 159.912 22.68 160.752 22.68C161.802 22.68 162.657 22.905 163.317 23.355C164.007 23.775 164.517 24.585 164.847 25.785L166.602 32.67C166.932 34.02 167.247 35.25 167.547 36.36C167.847 37.44 168.072 38.28 168.222 38.88H168.447C169.017 36.66 169.617 34.2 170.247 31.5C170.877 28.8 171.447 26.145 171.957 23.535C172.467 23.265 173.037 23.055 173.667 22.905C174.327 22.755 174.957 22.68 175.557 22.68C176.607 22.68 177.492 22.905 178.212 23.355C178.932 23.805 179.292 24.585 179.292 25.695C179.292 26.175 179.172 26.88 178.932 27.81C178.722 28.71 178.437 29.745 178.077 30.915C177.747 32.055 177.342 33.27 176.862 34.56C176.412 35.85 175.947 37.11 175.467 38.34C174.987 39.57 174.507 40.725 174.027 41.805C173.577 42.855 173.172 43.725 172.812 44.415ZM202.463 17.73C202.673 18.06 202.853 18.51 203.003 19.08C203.183 19.62 203.273 20.19 203.273 20.79C203.273 21.96 203.018 22.8 202.508 23.31C202.028 23.79 201.368 24.03 200.528 24.03H191.078V29.115H200.933C201.173 29.445 201.368 29.88 201.518 30.42C201.698 30.96 201.788 31.53 201.788 32.13C201.788 33.27 201.533 34.095 201.023 34.605C200.543 35.085 199.883 35.325 199.043 35.325H191.168V44.82C190.838 44.91 190.313 45 189.593 45.09C188.903 45.18 188.213 45.225 187.523 45.225C186.833 45.225 186.218 45.165 185.678 45.045C185.168 44.955 184.733 44.775 184.373 44.505C184.013 44.235 183.743 43.86 183.563 43.38C183.383 42.9 183.293 42.27 183.293 41.49V21.915C183.293 20.625 183.668 19.605 184.418 18.855C185.168 18.105 186.188 17.73 187.478 17.73H202.463ZM214.399 44.955C214.069 45.015 213.574 45.09 212.914 45.18C212.284 45.3 211.639 45.36 210.979 45.36C210.319 45.36 209.719 45.315 209.179 45.225C208.669 45.135 208.234 44.955 207.874 44.685C207.514 44.415 207.229 44.055 207.019 43.605C206.839 43.125 206.749 42.51 206.749 41.76V15.66C207.079 15.6 207.559 15.525 208.189 15.435C208.849 15.315 209.509 15.255 210.169 15.255C210.829 15.255 211.414 15.3 211.924 15.39C212.464 15.48 212.914 15.66 213.274 15.93C213.634 16.2 213.904 16.575 214.084 17.055C214.294 17.505 214.399 18.105 214.399 18.855V44.955ZM219.047 17.055C219.047 15.915 219.422 14.955 220.172 14.175C220.952 13.395 221.972 13.005 223.232 13.005C224.492 13.005 225.497 13.395 226.247 14.175C227.027 14.955 227.417 15.915 227.417 17.055C227.417 18.195 227.027 19.155 226.247 19.935C225.497 20.715 224.492 21.105 223.232 21.105C221.972 21.105 220.952 20.715 220.172 19.935C219.422 19.155 219.047 18.195 219.047 17.055ZM227.057 44.955C226.727 45.015 226.232 45.09 225.572 45.18C224.942 45.3 224.297 45.36 223.637 45.36C222.977 45.36 222.377 45.315 221.837 45.225C221.327 45.135 220.892 44.955 220.532 44.685C220.172 44.415 219.887 44.055 219.677 43.605C219.497 43.125 219.407 42.51 219.407 41.76V23.445C219.737 23.385 220.217 23.31 220.847 23.22C221.507 23.1 222.167 23.04 222.827 23.04C223.487 23.04 224.072 23.085 224.582 23.175C225.122 23.265 225.572 23.445 225.932 23.715C226.292 23.985 226.562 24.36 226.742 24.84C226.952 25.29 227.057 25.89 227.057 26.64V44.955ZM230.712 26.685C230.952 25.545 231.417 24.615 232.107 23.895C232.827 23.175 233.712 22.815 234.762 22.815C235.752 22.815 236.517 23.055 237.057 23.535C237.597 24.015 238.197 24.69 238.857 25.56L241.737 29.34L246.552 22.815C248.202 22.815 249.507 23.115 250.467 23.715C251.427 24.285 251.907 25.065 251.907 26.055C251.907 26.445 251.847 26.805 251.727 27.135C251.637 27.435 251.487 27.75 251.277 28.08C251.067 28.41 250.797 28.785 250.467 29.205C250.137 29.625 249.747 30.12 249.297 30.69L246.327 34.02L252.222 41.805C252.072 42.945 251.622 43.845 250.872 44.505C250.122 45.165 249.222 45.495 248.172 45.495C247.032 45.465 246.117 45.135 245.427 44.505C244.767 43.875 244.122 43.11 243.492 42.21L241.062 38.745L236.472 45.36C236.322 45.36 236.157 45.36 235.977 45.36C235.797 45.39 235.647 45.405 235.527 45.405C233.997 45.405 232.827 45.09 232.017 44.46C231.237 43.83 230.847 43.05 230.847 42.12C230.847 41.4 231.012 40.77 231.342 40.23C231.702 39.66 232.302 38.895 233.142 37.935L236.742 33.75L230.712 26.685Z" fill="#F5CC5C"/>
</svg>
