<svg width="128" height="68" viewBox="0 0 128 68" fill="none" xmlns="http://www.w3.org/2000/svg">
<g clip-path="url(#clip0_52_3880)">
<path d="M79.7143 1.42871H48.2857C46.7077 1.42871 45.4286 2.7079 45.4286 4.28585V35.7144C45.4286 37.2924 46.7077 38.5716 48.2857 38.5716H79.7143C81.2922 38.5716 82.5714 37.2924 82.5714 35.7144V4.28585C82.5714 2.7079 81.2922 1.42871 79.7143 1.42871Z" stroke="#F5CB5C" stroke-width="3" stroke-linecap="round" stroke-linejoin="round"/>
<path d="M59.6857 30.1717V19.2288C59.6937 19.0606 59.7428 18.897 59.8288 18.7523C59.9148 18.6075 60.035 18.4861 60.1789 18.3987C60.3227 18.3112 60.4858 18.2604 60.6539 18.2507C60.822 18.241 60.9899 18.2728 61.1428 18.3431L70.6286 23.8002C70.7822 23.8949 70.909 24.0273 70.997 24.1848C71.0849 24.3424 71.1311 24.5198 71.1311 24.7002C71.1311 24.8807 71.0849 25.0581 70.997 25.2156C70.909 25.3732 70.7822 25.5056 70.6286 25.6002L61.1428 31.086C60.9872 31.1499 60.8186 31.1758 60.651 31.1615C60.4834 31.1472 60.3216 31.0931 60.1791 31.0037C60.0366 30.9142 59.9175 30.7921 59.8316 30.6474C59.7458 30.5027 59.6958 30.3396 59.6857 30.1717V30.1717Z" stroke="#F5CB5C" stroke-width="3" stroke-linecap="round" stroke-linejoin="round"/>
<path d="M45.4286 11.4287H82.5714" stroke="#F5CB5C" stroke-width="3" stroke-linecap="round" stroke-linejoin="round"/>
<path d="M55.4286 11.4287L59.7143 1.42871" stroke="#F5CB5C" stroke-width="3" stroke-linecap="round" stroke-linejoin="round"/>
<path d="M68.2857 11.4287L72.5714 1.42871" stroke="#F5CB5C" stroke-width="3" stroke-linecap="round" stroke-linejoin="round"/>
</g>
<path d="M35.307 53.0909H38.1515L41.1558 60.4205H41.2836L44.2879 53.0909H47.1323V64H44.8951V56.8995H44.8046L41.9814 63.9467H40.458L37.6348 56.8729H37.5443V64H35.307V53.0909ZM59.0575 58.5455C59.0575 59.7351 58.832 60.7472 58.381 61.5817C57.9335 62.4162 57.3228 63.0536 56.5486 63.494C55.778 63.9308 54.9115 64.1491 53.9492 64.1491C52.9797 64.1491 52.1097 63.929 51.3391 63.4886C50.5685 63.0483 49.9595 62.4109 49.512 61.5763C49.0646 60.7418 48.8409 59.7315 48.8409 58.5455C48.8409 57.3558 49.0646 56.3438 49.512 55.5092C49.9595 54.6747 50.5685 54.0391 51.3391 53.6023C52.1097 53.1619 52.9797 52.9418 53.9492 52.9418C54.9115 52.9418 55.778 53.1619 56.5486 53.6023C57.3228 54.0391 57.9335 54.6747 58.381 55.5092C58.832 56.3438 59.0575 57.3558 59.0575 58.5455ZM56.7191 58.5455C56.7191 57.7749 56.6036 57.125 56.3728 56.5959C56.1456 56.0668 55.8242 55.6655 55.4087 55.392C54.9932 55.1186 54.5067 54.9819 53.9492 54.9819C53.3916 54.9819 52.9051 55.1186 52.4897 55.392C52.0742 55.6655 51.751 56.0668 51.5202 56.5959C51.2929 57.125 51.1793 57.7749 51.1793 58.5455C51.1793 59.3161 51.2929 59.9659 51.5202 60.495C51.751 61.0241 52.0742 61.4254 52.4897 61.6989C52.9051 61.9723 53.3916 62.109 53.9492 62.109C54.5067 62.109 54.9932 61.9723 55.4087 61.6989C55.8242 61.4254 56.1456 61.0241 56.3728 60.495C56.6036 59.9659 56.7191 59.3161 56.7191 58.5455ZM62.1217 53.0909L64.7584 61.3793H64.8596L67.5016 53.0909H70.0585L66.2978 64H63.3255L59.5595 53.0909H62.1217ZM73.678 53.0909V64H71.3715V53.0909H73.678ZM75.5756 64V53.0909H82.9264V54.9925H77.8821V57.592H82.5483V59.4936H77.8821V62.0984H82.9478V64H75.5756ZM90.6781 56.2283C90.6355 55.7987 90.4526 55.4648 90.1295 55.2269C89.8063 54.989 89.3678 54.87 88.8138 54.87C88.4374 54.87 88.1195 54.9233 87.8603 55.0298C87.6011 55.1328 87.4022 55.2766 87.2637 55.4613C87.1288 55.646 87.0613 55.8555 87.0613 56.0898C87.0542 56.2852 87.095 56.4556 87.1838 56.6012C87.2761 56.7468 87.4022 56.8729 87.562 56.9794C87.7218 57.0824 87.9065 57.1729 88.116 57.2511C88.3255 57.3256 88.5492 57.3896 88.7872 57.4428L89.7673 57.6772C90.2431 57.7837 90.6799 57.9258 91.0776 58.1033C91.4754 58.2809 91.8198 58.4993 92.111 58.7585C92.4022 59.0178 92.6277 59.3232 92.7875 59.6747C92.9509 60.0263 93.0343 60.4293 93.0379 60.8839C93.0343 61.5515 92.8639 62.1303 92.5265 62.6204C92.1927 63.1069 91.7097 63.4851 91.0776 63.755C90.4491 64.0213 89.6909 64.1545 88.8031 64.1545C87.9225 64.1545 87.1554 64.0195 86.502 63.7496C85.8521 63.4798 85.3443 63.0803 84.9786 62.5511C84.6163 62.0185 84.4264 61.3597 84.4086 60.5749H86.6405C86.6653 60.9407 86.7701 61.2461 86.9548 61.4911C87.143 61.7326 87.3933 61.9155 87.7058 62.0398C88.0219 62.1605 88.3788 62.2209 88.7765 62.2209C89.1671 62.2209 89.5063 62.1641 89.7939 62.0504C90.0851 61.9368 90.3106 61.7788 90.4704 61.5763C90.6302 61.3739 90.7101 61.1413 90.7101 60.8786C90.7101 60.6335 90.6373 60.4276 90.4917 60.2607C90.3497 60.0937 90.1401 59.9517 89.8631 59.8345C89.5897 59.7173 89.2541 59.6108 88.8564 59.5149L87.6685 59.2166C86.7488 58.9929 86.0226 58.6431 85.4899 58.1673C84.9573 57.6914 84.6927 57.0504 84.6962 56.2443C84.6927 55.5838 84.8685 55.0067 85.2236 54.5131C85.5823 54.0195 86.0741 53.6342 86.6991 53.3572C87.3241 53.0803 88.0343 52.9418 88.8298 52.9418C89.6394 52.9418 90.3461 53.0803 90.9498 53.3572C91.557 53.6342 92.0293 54.0195 92.3667 54.5131C92.7041 55.0067 92.8781 55.5785 92.8887 56.2283H90.6781Z" fill="#F5CB5C"/>
<defs>
<clipPath id="clip0_52_3880">
<rect width="40" height="40" fill="white" transform="translate(44)"/>
</clipPath>
</defs>
</svg>
